<svg xmlns="http://www.w3.org/2000/svg" width="1600" height="1120" viewBox="0 0 1600 1120">
<rect width="100%" height="100%" fill="#f6f8fa"/>
<text x="40" y="42" font-family="Arial, sans-serif" font-size="28px" font-weight="700" fill="#1f2328">Option B — fixed high-contrast tile</text>
<text x="40" y="72" font-family="Arial, sans-serif" font-size="17px" font-weight="400" fill="#656d76">Blue badge and padding stay visible in either theme.</text>
<rect x="40" y="90" width="740" height="770" rx="12" fill="#ffffff" stroke="#d0d7de" stroke-width="2"/><text x="68" y="128" font-family="Arial, sans-serif" font-size="18px" font-weight="700" fill="#1f2328">README</text><line x1="56" y1="148" x2="764" y2="148" stroke="#d0d7de" stroke-width="2"/><text x="68" y="198" font-family="Arial, sans-serif" font-size="18px" font-weight="600" fill="#1f2328">brouter routes URLs to the right browser based on a</text><text x="68" y="226" font-family="Arial, sans-serif" font-size="18px" font-weight="600" fill="#1f2328">version-controlled configuration.</text><text x="68" y="295" font-family="Arial, sans-serif" font-size="28px" font-weight="700" fill="#1f2328">Open a URL</text><line x1="68" y1="314" x2="752" y2="314" stroke="#d0d7de" stroke-width="2"/><g transform="translate(690 263) scale(0.625)"><rect width="80" height="80" rx="14" fill="#2563eb"/><path d="M8.45 6.2A3.4 3.4 0 0 1 11.85 9.6a3.4 3.4 0 0 1-6.8 0V3.4M6.25 3.6 5.05 2 3.85 3.6" transform="translate(8 8) scale(4)" fill="none" stroke="#fff" stroke-width="1.7" stroke-linecap="round" stroke-linejoin="round"/></g><rect x="68" y="342" width="684" height="90" rx="6" fill="#f6f8fa"/><text x="88" y="378" font-family="Menlo, monospace" font-size="17px" font-weight="700" fill="#1f2328">brouter open URL</text><text x="88" y="407" font-family="Menlo, monospace" font-size="16px" font-weight="400" fill="#656d76">echo URL | brouter open</text><rect x="68" y="480" width="684" height="330" rx="8" fill="#f6f8fa" stroke="#d0d7de"/><text x="88" y="515" font-family="Arial, sans-serif" font-size="14px" font-weight="700" fill="#656d76">enlarged crop</text><rect x="208" y="545" width="400" height="220" rx="12" fill="#1e293b" stroke="#d0d7de"/><g transform="translate(328 575) scale(2.0)"><rect width="80" height="80" rx="14" fill="#2563eb"/><path d="M8.45 6.2A3.4 3.4 0 0 1 11.85 9.6a3.4 3.4 0 0 1-6.8 0V3.4M6.25 3.6 5.05 2 3.85 3.6" transform="translate(8 8) scale(4)" fill="none" stroke="#fff" stroke-width="1.7" stroke-linecap="round" stroke-linejoin="round"/></g>
<rect x="820" y="90" width="740" height="770" rx="12" fill="#0d1117" stroke="#30363d" stroke-width="2"/><text x="848" y="128" font-family="Arial, sans-serif" font-size="18px" font-weight="700" fill="#e6edf3">README</text><line x1="836" y1="148" x2="1544" y2="148" stroke="#30363d" stroke-width="2"/><text x="848" y="198" font-family="Arial, sans-serif" font-size="18px" font-weight="600" fill="#e6edf3">brouter routes URLs to the right browser based on a</text><text x="848" y="226" font-family="Arial, sans-serif" font-size="18px" font-weight="600" fill="#e6edf3">version-controlled configuration.</text><text x="848" y="295" font-family="Arial, sans-serif" font-size="28px" font-weight="700" fill="#e6edf3">Open a URL</text><line x1="848" y1="314" x2="1532" y2="314" stroke="#30363d" stroke-width="2"/><g transform="translate(1470 263) scale(0.625)"><rect width="80" height="80" rx="14" fill="#2563eb"/><path d="M8.45 6.2A3.4 3.4 0 0 1 11.85 9.6a3.4 3.4 0 0 1-6.8 0V3.4M6.25 3.6 5.05 2 3.85 3.6" transform="translate(8 8) scale(4)" fill="none" stroke="#fff" stroke-width="1.7" stroke-linecap="round" stroke-linejoin="round"/></g><rect x="848" y="342" width="684" height="90" rx="6" fill="#161b22"/><text x="868" y="378" font-family="Menlo, monospace" font-size="17px" font-weight="700" fill="#e6edf3">brouter open URL</text><text x="868" y="407" font-family="Menlo, monospace" font-size="16px" font-weight="400" fill="#8b949e">echo URL | brouter open</text><rect x="848" y="480" width="684" height="330" rx="8" fill="#161b22" stroke="#30363d"/><text x="868" y="515" font-family="Arial, sans-serif" font-size="14px" font-weight="700" fill="#8b949e">enlarged crop</text><rect x="988" y="545" width="400" height="220" rx="12" fill="#1e293b" stroke="#30363d"/><g transform="translate(1108 575) scale(2.0)"><rect width="80" height="80" rx="14" fill="#2563eb"/><path d="M8.45 6.2A3.4 3.4 0 0 1 11.85 9.6a3.4 3.4 0 0 1-6.8 0V3.4M6.25 3.6 5.05 2 3.85 3.6" transform="translate(8 8) scale(4)" fill="none" stroke="#fff" stroke-width="1.7" stroke-linecap="round" stroke-linejoin="round"/></g>
<text x="68" y="904" font-family="Arial, sans-serif" font-size="16px" font-weight="400" fill="#656d76">GitHub-like light background</text>
<text x="848" y="904" font-family="Arial, sans-serif" font-size="16px" font-weight="400" fill="#656d76">GitHub-like dark background</text>
<text x="40" y="990" font-family="Arial, sans-serif" font-size="16px" font-weight="400" fill="#656d76">Preview only — no root README branding or macOS assets changed.</text>
</svg>